<svg width="16" height="16" viewBox="0 0 16 16" fill="none" xmlns="http://www.w3.org/2000/svg">
<g id="Frame">
<path id="Vector" d="M2.4694 9.46945L7.4694 4.46945C7.53908 4.39953 7.62187 4.34405 7.71304 4.3062C7.8042 4.26834 7.90194 4.24886 8.00065 4.24886C8.09936 4.24886 8.1971 4.26834 8.28827 4.3062C8.37943 4.34405 8.46222 4.39953 8.5319 4.46945L13.5319 9.46945C13.6728 9.61034 13.752 9.80144 13.752 10.0007C13.752 10.2 13.6728 10.3911 13.5319 10.5319C13.391 10.6728 13.1999 10.752 13.0007 10.752C12.8014 10.752 12.6103 10.6728 12.4694 10.5319L8.00003 6.06257L3.53065 10.5326C3.38976 10.6735 3.19866 10.7526 2.9994 10.7526C2.80015 10.7526 2.60905 10.6735 2.46815 10.5326C2.32726 10.3917 2.2481 10.2006 2.2481 10.0013C2.2481 9.80207 2.32726 9.61097 2.46815 9.47007L2.4694 9.46945Z" fill="black"/>
</g>
</svg>
