<svg width="16" height="17" viewBox="0 0 16 17" fill="none" xmlns="http://www.w3.org/2000/svg">
<g id="Frame">
<path id="Vector" d="M6.53073 2.96937L11.5307 7.96937C11.6007 8.03905 11.6561 8.12184 11.694 8.21301C11.7318 8.30417 11.7513 8.40191 11.7513 8.50062C11.7513 8.59933 11.7318 8.69707 11.694 8.78824C11.6561 8.8794 11.6007 8.96219 11.5307 9.03187L6.53073 14.0319C6.38984 14.1728 6.19874 14.2519 5.99948 14.2519C5.80023 14.2519 5.60913 14.1728 5.46823 14.0319C5.32734 13.891 5.24818 13.6999 5.24818 13.5006C5.24818 13.3014 5.32734 13.1103 5.46823 12.9694L9.93761 8.5L5.46761 4.03062C5.32671 3.88973 5.24756 3.69863 5.24756 3.49937C5.24756 3.30011 5.32671 3.10902 5.46761 2.96812C5.60851 2.82723 5.7996 2.74807 5.99886 2.74807C6.19812 2.74807 6.38921 2.82723 6.53011 2.96812L6.53073 2.96937Z" fill="black" fill-opacity="0.6"/>
</g>
</svg>
